<?xml version="1.0" encoding="UTF-8"?>
<svg version="1.1" xmlns="http://www.w3.org/2000/svg" width="612" height="595">
<path d="M0 0 C0.66 0 1.32 0 2 0 C2 0.66 2 1.32 2 2 C2.66336617 1.97040255 3.32673233 1.94080509 4.0102005 1.91031075 C33.45394651 0.66912867 62.92022243 0.851691 92.38357797 0.86470055 C97.73931639 0.86700076 103.09505163 0.86726255 108.45079041 0.86618423 C109.60513925 0.86595439 109.60513925 0.86595439 110.78280827 0.86571989 C112.34699492 0.86540011 113.91118156 0.8650759 115.4753682 0.8647473 C130.01935271 0.86191934 144.56333083 0.86514014 159.10731429 0.87054767 C171.58342751 0.87504212 184.05953146 0.87421304 196.53564453 0.86962891 C211.08637726 0.86428487 225.6371045 0.86216374 240.18783808 0.86524117 C241.73566341 0.86555969 243.28348875 0.86587406 244.83131409 0.86618423 C245.59262555 0.86633851 246.35393701 0.86649279 247.13831851 0.86665174 C252.50330072 0.86751527 257.86827944 0.86605813 263.23326111 0.86370468 C269.74611385 0.86090972 276.25895453 0.86163969 282.77180588 0.86698543 C286.09360419 0.86962211 289.41537805 0.87009368 292.7371769 0.86733627 C296.32810102 0.86462854 299.91896731 0.86800078 303.5098877 0.87301636 C304.57003948 0.87078564 305.63019126 0.86855491 306.72246885 0.86625659 C308.15272988 0.87016822 308.15272988 0.87016822 309.61188507 0.87415886 C310.85578656 0.87440239 310.85578656 0.87440239 312.12481737 0.87465084 C314 1 314 1 315 2 C316.155 2 317.31 2 318.5 2 C319.655 2 320.81 2 322 2 C322.33 2.33 322.66 2.66 323 3 C323.825 3 324.65 3 325.5 3 C326.325 3 327.15 3 328 3 C328.33 3.33 328.66 3.66 329 4 C330.96259065 4.25738894 332.92597004 4.51192181 334.89453125 4.71875 C343.68773394 5.89335221 352.6075172 9.44227454 360.15625 14 C362.0481481 15.07970299 362.0481481 15.07970299 364.39453125 15.90625 C367.30178371 17.12668582 369.62373211 18.66929131 372.1875 20.5 C373.04730469 21.1084375 373.90710938 21.716875 374.79296875 22.34375 C377 24 377 24 379 26 C379.763125 26.598125 380.52625 27.19625 381.3125 27.8125 C384.07324714 30.05961976 386.48292896 32.48292896 389 35 C391.38999532 37.09174969 393.79084274 39.16902243 396.20703125 41.23046875 C396.79871094 41.81441406 397.39039063 42.39835937 398 43 C398 43.66 398 44.32 398 45 C399.30887458 46.35735142 400.64852862 47.68505488 402 49 C410.41468505 58.09695681 416.7865365 70.06427842 420 82 C420.350625 82.66 420.70125 83.32 421.0625 84 C422 86 422 86 422.5 89.5625 C422.76535587 93.11295563 422.76535587 93.11295563 425 96 C425.04384447 97.66608987 425.0396713 99.33380554 425 101 C425.34613117 104.30571056 425.34613117 104.30571056 427 107 C427.04080783 108.99958364 427.04254356 111.00045254 427 113 C427.33 113 427.66 113 428 113 C428 116.3 428 119.6 428 123 C428.33 123 428.66 123 429 123 C428.98259766 124.77890625 428.98259766 124.77890625 428.96484375 126.59375 C428.91311971 134.49110748 428.95117754 142.31084527 429.5625 150.1875 C430.06574026 157.03983996 429.77081535 163.55583415 429.15625 170.37890625 C428.99681173 174.07388805 429.39264214 177.36028612 430 181 C430.03786901 182.66623639 430.04627845 184.33397597 430 186 C430 186.99 430 187.98 430 189 C430 189.99 430 190.98 430 192 C429.67 192.33 429.34 192.66 429 193 C429 193.99 429 194.98 429 196 C429 197.66666667 429 199.33333333 429 201 C429.33 201 429.66 201 430 201 C430 223 430 223 429 226 C428.90553046 227.94482486 428.86928294 229.89272695 428.8671875 231.83984375 C428.86589844 232.98517578 428.86460937 234.13050781 428.86328125 235.31054688 C428.86714844 236.50744141 428.87101563 237.70433594 428.875 238.9375 C428.87113281 240.13052734 428.86726562 241.32355469 428.86328125 242.55273438 C428.86457031 243.69935547 428.86585938 244.84597656 428.8671875 246.02734375 C428.86831543 247.07656006 428.86944336 248.12577637 428.87060547 249.20678711 C428.98349985 251.64381462 429.29732359 253.67530641 430 256 C429.34 256 428.68 256 428 256 C428 258.97 428 261.94 428 265 C428.66 265.33 429.32 265.66 430 266 C429.814375 266.721875 429.62875 267.44375 429.4375 268.1875 C428.97857914 271.13770553 429.28221012 273.12884046 430 276 C430 277.86265132 429.70831513 279.71370324 429.5 281.5625 C429.4071875 282.38878906 429.314375 283.21507812 429.21875 284.06640625 C429.1465625 284.70449219 429.074375 285.34257812 429 286 C429.33 286 429.66 286 430 286 C430.0272415 287.41655793 430.04650467 288.83327045 430.0625 290.25 C430.07990234 291.43335938 430.07990234 291.43335938 430.09765625 292.640625 C430 295 430 295 429.48632812 296.81079102 C428.9041111 299.43164447 428.98614323 301.70593238 429.12109375 304.38671875 C429.16943359 305.40701172 429.21777344 306.42730469 429.26757812 307.47851562 C429.32365234 308.53748047 429.37972656 309.59644531 429.4375 310.6875 C429.48970703 311.75806641 429.54191406 312.82863281 429.59570312 313.93164062 C429.69184958 315.90076999 429.79048264 317.86978052 429.89233398 319.83862305 C430.03757637 322.75433918 430.00524811 322.98425568 429 326 C428.91738344 327.66175888 428.89259028 329.3266958 428.90234375 330.99047852 C428.90564697 332.00485489 428.9089502 333.01923126 428.91235352 334.06434631 C428.92065186 335.15815109 428.9289502 336.25195587 428.9375 337.37890625 C428.94128662 338.50191635 428.94507324 339.62492645 428.94897461 340.78196716 C428.96121195 344.37551663 428.97984542 347.96898673 429 351.5625 C429.02649238 356.29296652 429.04653582 361.02339382 429.0625 365.75390625 C429.07079834 366.84973526 429.07909668 367.94556427 429.08764648 369.07460022 C429.09094971 370.08582443 429.09425293 371.09704865 429.09765625 372.13891602 C429.10289307 373.0314357 429.10812988 373.92395538 429.11352539 374.84352112 C429 377 429 377 428 379 C428.66 379 429.32 379 430 379 C429.9278125 379.61746094 429.855625 380.23492187 429.78125 380.87109375 C428.22276249 390.63490665 428.22276249 390.63490665 430 400 C429.34 400 428.68 400 428 400 C428.15597656 401.02480469 428.31195312 402.04960937 428.47265625 403.10546875 C428.66971061 404.46608221 428.86630071 405.82676297 429.0625 407.1875 C429.16626953 407.86103516 429.27003906 408.53457031 429.37695312 409.22851562 C430.11777675 414.46537228 430.11777675 414.46537228 429.52514648 417.15551758 C428.77732357 421.20613813 428.89763117 425.1718572 428.9375 429.28125 C428.94128662 430.17235474 428.94507324 431.06345947 428.94897461 431.98156738 C428.96115875 434.82109478 428.97978332 437.66051911 429 440.5 C429.02662526 444.23958078 429.04660894 447.9791099 429.0625 451.71875 C429.07079834 452.57408325 429.07909668 453.4294165 429.08764648 454.31066895 C429.10428806 458.3628914 428.95722976 462.03823349 428 466 C427.70914584 469.40945713 427.49564687 472.81933922 427.28125 476.234375 C427 479 427 479 426 480 C426 480.928125 426 481.85625 426 482.8125 C426 486.48643437 425.44829679 488.96331366 424 492.3125 C422.85893236 495.06718618 422.85893236 495.06718618 422.5625 498.4375 C421.96830919 502.20070846 420.74860995 504.64266889 419 508 C418.690625 509.134375 418.38125 510.26875 418.0625 511.4375 C416.85635059 515.48164802 415.14801146 518.37523067 413 522 C412.71253906 522.77859375 412.42507813 523.5571875 412.12890625 524.359375 C410.78676651 527.49877452 408.99967846 529.90786469 406.9375 532.625 C403.95254352 536.53776003 403.95254352 536.53776003 402 541 C401.01 541.33 400.02 541.66 399 542 C397.353524 543.62428096 397.353524 543.62428096 395.75 545.625 C392.35536709 549.63095451 388.75208937 553.33149678 385 557 C384.51144531 557.49628906 384.02289062 557.99257813 383.51953125 558.50390625 C381.88082236 560.11733942 380.18132672 561.62598697 378.4375 563.125 C377.83808594 563.64320313 377.23867188 564.16140625 376.62109375 564.6953125 C375 566 375 566 373 567 C369.95865509 568.66924071 369.95865509 568.66924071 369 571 C367.11352722 571.70742729 365.2247412 572.40935947 363.32421875 573.078125 C360.85076078 574.05919405 358.6237601 575.24620447 356.3125 576.5625 C350.98234716 579.59265538 347.25945091 581.29113725 341 581 C341 581.66 341 582.32 341 583 C339.39125 583.185625 339.39125 583.185625 337.75 583.375 C334.21323595 583.76952682 334.21323595 583.76952682 332.1015625 584.97265625 C329.61320631 586.18908316 327.35396782 586.60767203 324.625 587.0625 C323.66207031 587.22621094 322.69914062 587.38992188 321.70703125 587.55859375 C320.81371094 587.70425781 319.92039062 587.84992187 319 588 C317.783125 588.20625 316.56625 588.4125 315.3125 588.625 C314.1678125 588.810625 314.1678125 588.810625 313 589 C313 588.34 313 587.68 313 587 C312.34 587.66 311.68 588.32 311 589 C302.14193523 590.57493336 292.83402403 590.16794401 283.8659668 590.20532227 C282.38429 590.2149279 280.90261578 590.22493943 279.42094421 590.23532104 C275.42851916 590.26214172 271.43608264 590.28328831 267.44361854 590.30332303 C263.23166407 590.32541489 259.01974306 590.35270831 254.80781555 590.37937927 C247.72597761 590.42351205 240.64412721 590.46430239 233.56225586 590.50268555 C223.6533571 590.55639582 213.7445015 590.61611786 203.83564508 590.67708123 C196.06101001 590.72469632 188.28636529 590.77070839 180.51171875 590.81640625 C179.69405903 590.821223 178.8763993 590.82603976 178.03396201 590.83100247 C175.61522732 590.84519305 173.19649177 590.8592252 170.77775574 590.8731842 C170.00009981 590.87771585 169.22244388 590.88224749 168.42122263 590.88691646 C164.66960401 590.90830417 160.91800272 590.92724742 157.16634655 590.94065189 C155.7561917 590.94582768 154.34603704 590.9510525 152.93588257 590.95632935 C152.25896364 590.95882586 151.58204472 590.96132238 150.8846131 590.96389455 C146.53096264 590.98340409 142.17907923 591.04077686 137.82608032 591.1166687 C136.74984059 591.13058372 135.67360086 591.14449873 134.56474781 591.15883541 C132.61607465 591.184614 130.6675 591.22171747 128.7193327 591.27305698 C122.6428899 591.33598635 122.6428899 591.33598635 119.41996765 589.65162659 C118 588 118 588 117.75 585.375 C117.8325 584.59125 117.915 583.8075 118 583 C118 582.67 118 582.34 118 582 C118.185625 581.34 118.37125 580.68 118.5625 580 C118.706875 579.34 118.85125 578.68 119 578 C118.67 577.67 118.34 577.34 118 577 C117.9008082 575.38916255 117.8692018 573.77404356 117.8671875 572.16015625 C117.86589844 571.17982422 117.86460937 570.19949219 117.86328125 569.18945312 C117.86714844 568.15755859 117.87101562 567.12566406 117.875 566.0625 C117.87113281 565.03447266 117.86726563 564.00644531 117.86328125 562.94726562 C117.86521484 561.47483398 117.86521484 561.47483398 117.8671875 559.97265625 C117.86831543 559.06781494 117.86944336 558.16297363 117.87060547 557.23071289 C118 555 118 555 119 553 C119.0624419 550.6766023 119.0595435 548.35135731 119.02734375 546.02734375 C119.01293471 544.5668187 118.99912504 543.10628765 118.98583984 541.64575195 C118.97752136 540.87703766 118.96920288 540.10832336 118.96063232 539.3163147 C118.84523424 527.4493416 118.90893891 515.64970195 119.875 503.8125 C119.99282837 502.33027954 119.99282837 502.33027954 120.11303711 500.81811523 C120.49617622 496.59916847 121.02650236 492.60506627 122.1328125 488.51171875 C123.31699736 485.06025441 123.31699736 485.06025441 122 482 C122.33528559 479.88134192 122.76715236 477.77747288 123.25 475.6875 C123.53230469 474.44355469 123.81460937 473.19960938 124.10546875 471.91796875 C124.25419434 471.27263184 124.40291992 470.62729492 124.55615234 469.96240234 C125.51848511 465.70759994 126.37060352 461.42804172 127.25390625 457.15625 C129.1022059 449.33726508 131.97919735 443.24606274 137 437 C138.23386116 435.23243444 139.46290319 433.46149663 140.6875 431.6875 C144.03207702 427.05126731 147.60863662 423.37039383 151.9765625 419.703125 C154.15984389 417.92171288 154.15984389 417.92171288 156.5625 415.375 C162.00568208 410.07138669 168.22006753 406.1446083 174.80078125 402.39453125 C176.85558883 401.09157156 178.32758771 399.74597881 180 398 C181.31647119 397.30062468 182.65022151 396.63270867 184 396 C184.99 395.34 185.98 394.68 187 394 C188.74468568 393.05264679 190.49535843 392.11628373 192.25 391.1875 C196.10355134 389.10163276 199.66429694 386.91443772 203.171875 384.30078125 C213.43243243 377 213.43243243 377 217 377 C217.33 376.01 217.66 375.02 218 374 C220.06788474 372.71648534 221.79984889 372.04003022 224.1875 371.5625 C224.785625 371.376875 225.38375 371.19125 226 371 C226.33 370.01 226.66 369.02 227 368 C228.65 367.67 230.3 367.34 232 367 C232 366.34 232 365.68 232 365 C236.38461538 362 236.38461538 362 239 362 C239.33 361.01 239.66 360.02 240 359 C241.65 358.67 243.3 358.34 245 358 C245 357.34 245 356.68 245 356 C245.66 356 246.32 356 247 356 C247.33 355.01 247.66 354.02 248 353 C253.37142857 349 253.37142857 349 256 349 C256.2475 348.40316406 256.495 347.80632812 256.75 347.19140625 C258.19319089 344.66131223 259.61513769 343.58147678 262 341.9375 C264.77920261 340.01147172 266.07469566 338.88795651 268 336 C268.66 336 269.32 336 270 336 C270.33 335.01 270.66 334.02 271 333 C271.66 333 272.32 333 273 333 C273.268125 332.401875 273.53625 331.80375 273.8125 331.1875 C275.00646348 328.98809359 276.17119007 327.68250513 278 326 C278.7734375 325.195625 278.7734375 325.195625 279.5625 324.375 C281 323 281 323 283 322 C284.13350534 319.98330173 284.13350534 319.98330173 285 318 C285.66 318 286.32 318 287 318 C287.33 317.01 287.66 316.02 288 315 C288.66 315 289.32 315 290 315 C290 313.68 290 312.36 290 311 C290.99 311 291.98 311 293 311 C293.103125 310.236875 293.20625 309.47375 293.3125 308.6875 C294.04711194 305.81583516 294.6716065 304.76957906 297 303 C297.66 303 298.32 303 299 303 C299.33 301.68 299.66 300.36 300 299 C300.66 299 301.32 299 302 299 C302.33 297.35 302.66 295.7 303 294 C303.99 293.67 304.98 293.34 306 293 C306.37756808 291.67851173 306.7018576 290.34164079 307 289 C307.9873454 287.32580562 308.98812105 285.65948148 310 284 C310.309375 283.195625 310.61875 282.39125 310.9375 281.5625 C312.4826436 277.83597721 314.29128724 273.85435638 318 272 C318.65772428 268.97065509 318.65772428 268.97065509 319 266 C319.66 266 320.32 266 321 266 C321.103125 265.319375 321.20625 264.63875 321.3125 263.9375 C321.88246991 261.50217401 322.55876943 259.57562836 323.5625 257.3125 C325.13269771 254.2960457 325.13269771 254.2960457 325 252 C325.66 252 326.32 252 327 252 C327.12375 251.113125 327.2475 250.22625 327.375 249.3125 C327.94573943 246.287581 328.8508068 243.83467655 330 241 C330 240.01 330 239.02 330 238 C330.66 238 331.32 238 332 238 C332.12375 237.13375 332.2475 236.2675 332.375 235.375 C332.98197263 232.0973478 333.92762952 229.15008829 335 226 C335.34820041 224.33637583 335.68404492 222.67004829 336 221 C336.33 220.01 336.66 219.02 337 218 C337.144375 217.2575 337.28875 216.515 337.4375 215.75 C338 213 338 213 339.0625 209.375 C340.13382193 206.10203922 340.13382193 206.10203922 340 203 C340.66 203 341.32 203 342 203 C341.79375 202.0925 341.5875 201.185 341.375 200.25 C340.96047159 196.65742043 341.42948633 196.05825458 343 193 C343.43131806 190.90136274 343.43131806 190.90136274 343.59765625 188.69921875 C343.67693359 187.88646484 343.75621094 187.07371094 343.83789062 186.23632812 C343.91201172 185.39521484 343.98613281 184.55410156 344.0625 183.6875 C344.21883867 182.02462506 344.37637186 180.36186194 344.53515625 178.69921875 C344.61088867 177.90016113 344.68662109 177.10110352 344.76464844 176.27783203 C345.08567716 173.17078021 345.53054164 170.08773833 346 167 C346.94148685 161.46874568 346.94148685 161.46874568 346 156 C346.33 155.34 346.66 154.68 347 154 C347.0452537 152.16722527 347.03858794 150.33292719 347 148.5 C346.88888889 143.22222222 346.88888889 143.22222222 348 141 C347.855625 140.15308594 347.71125 139.30617187 347.5625 138.43359375 C346.75692393 133.51622317 346.95616857 128.69019394 347.0390625 123.72070312 C347.07603708 120.07562596 347.01153604 116.60129765 346.4375 112.99609375 C346.293125 112.00738281 346.14875 111.01867187 346 110 C346.33 109.67 346.66 109.34 347 109 C346.67 109 346.34 109 346 109 C345.972807 107.41676312 345.95351694 105.83338938 345.9375 104.25 C345.92009766 102.92742187 345.92009766 102.92742187 345.90234375 101.578125 C345.99173802 99.2181162 346.33087179 97.25501476 347 95 C346.34 95 345.68 95 345 95 C345.04125 93.7625 345.0825 92.525 345.125 91.25 C345.14088306 86.24683511 344.350737 81.5102114 343.4375 76.6015625 C342.89340739 73.36615465 343 70.28578612 343 67 C342.34 67 341.68 67 341 67 C341.020625 65.9275 341.04125 64.855 341.0625 63.75 C341.01345128 60.8070768 340.71872873 58.77223939 340 56 C340.33 55.34 340.66 54.68 341 54 C337.44022591 53.79996231 337.44022591 53.79996231 334.125 54.9375 C331.83182081 56.08408959 329.75604948 56.60904864 327.25 57.125 C326.45078125 57.29257812 325.6515625 57.46015625 324.828125 57.6328125 C323.92320312 57.81457031 323.92320312 57.81457031 323 58 C323 58.33 323 58.66 323 59 C322.38253906 59.09796875 321.76507813 59.1959375 321.12890625 59.296875 C315.64285769 60.2654924 310.98358093 61.67988713 306.0078125 64.1953125 C304 65 304 65 300 65 C299.67 65.66 299.34 66.32 299 67 C294.16353693 69.69823729 289.46415024 71.18037746 284 72 C283.67 72.66 283.34 73.32 283 74 C278.65401261 77.41470438 275.42894787 78.36130025 270 79 C269.67 79.66 269.34 80.32 269 81 C267 83 267 83 264.9375 83.8125 C260.74821315 85.50604149 256.92217886 87.76747951 253 90 C252.39929688 90.33128906 251.79859375 90.66257812 251.1796875 91.00390625 C246.91924387 93.37192027 242.91953764 96.04562271 238.91796875 98.828125 C237 100 237 100 235 100 C235 100.66 235 101.32 235 102 C233.845 102.53625 232.69 103.0725 231.5 103.625 C224.59846342 107.07576829 218.87279254 112.06151536 213 117 C210.89834068 118.6558528 208.89521075 120.05911188 206.5625 121.375 C203.60168827 123.25258793 201.40756201 125.4622995 199 128 C196.21910525 130.78089475 193.41191499 133.35455315 189.8125 135 C187.50737973 136.2717905 186.96030234 137.59924415 186 140 C185.34 140 184.68 140 184 140 C183.67 140.99 183.34 141.98 183 143 C181.36328125 144.5078125 181.36328125 144.5078125 179.3125 146.125 C175.42306395 149.38710766 172.89813247 152.82837205 170.32421875 157.1796875 C169 159 169 159 166 160 C164.12447511 162.59263734 162.43155039 165.13689923 161 168 C160.34 168 159.68 168 159 168 C158.34 169.98 157.68 171.96 157 174 C156.34 174 155.68 174 155 174 C154.67 174.99 154.34 175.98 154 177 C153.22145688 178.16917103 152.40570067 179.31406647 151.5625 180.4375 C150.22968746 182.21590957 149.05736995 183.88526009 148.0625 185.875 C146.20840542 189.58318916 143.82213674 192.97315015 141.55859375 196.44140625 C139.88371086 198.9764106 139.88371086 198.9764106 139 202 C138.34 202 137.68 202 137 202 C136.87625 202.5775 136.7525 203.155 136.625 203.75 C135.99356636 206.02316112 135.05142447 207.89715105 134 210 C134 210.66 134 211.32 134 212 C133.34 212 132.68 212 132 212 C132.04898437 212.72445312 132.09796875 213.44890625 132.1484375 214.1953125 C131.97939916 217.38924744 131.16283557 219.09267322 129.625 221.875 C127.49835332 225.89936256 126.05646828 229.58204173 125 234 C124.34 234 123.68 234 123 234 C123.0825 234.825 123.165 235.65 123.25 236.5 C122.96522783 240.48681042 121.79287943 242.82942435 119.875 246.265625 C118.84985732 247.97383814 118.84985732 247.97383814 119 250 C118.34 250 117.68 250 117 250 C117.33 251.98 117.66 253.96 118 256 C117.34 256 116.68 256 116 256 C115.95101563 256.65226562 115.90203125 257.30453125 115.8515625 257.9765625 C115.42402881 262.97428386 114.68740928 267.2541614 113 272 C112.62468554 274.32694964 112.28082798 276.65976685 112 279 C111.34 279 110.68 279 110 279 C110.185625 279.804375 110.37125 280.60875 110.5625 281.4375 C111.09610028 285.78253084 110.6225704 289.68989724 110 294 C109.34 294 108.68 294 108 294 C108.01160156 295.00160156 108.02320313 296.00320313 108.03515625 297.03515625 C108.04454398 298.37760228 108.05364312 299.72005036 108.0625 301.0625 C108.07410156 302.37347656 108.08570313 303.68445313 108.09765625 305.03515625 C108.0054722 308.77782884 107.57843108 312.30623932 107 316 C107 316.86625 107 317.7325 107 318.625 C107 321 107 321 106.50808716 323.29309082 C105.97096847 326.15466978 105.87296802 328.77523714 105.87060547 331.68554688 C105.86745331 332.80441284 105.86430115 333.92327881 105.86105347 335.0760498 C105.8630777 336.27814087 105.86510193 337.48023193 105.8671875 338.71875 C105.86623077 339.96821411 105.86527405 341.21767822 105.86428833 342.50500488 C105.86360797 345.15115824 105.86494787 347.79721923 105.86962891 350.44335938 C105.87416101 353.13348605 105.87422293 355.82354531 105.86962891 358.51367188 C105.86339154 362.41538464 105.86421811 366.31703439 105.8671875 370.21875 C105.86415115 371.99759583 105.86415115 371.99759583 105.86105347 373.81237793 C105.87971495 380.58560252 106.16906166 387.27073551 106.76760864 394.01818848 C107.69039459 405.85844707 107.61301182 418.90636023 103 430 C102.5904171 432.05911595 102.5904171 432.05911595 102.4375 434.125 C102.3653125 434.88941406 102.293125 435.65382813 102.21875 436.44140625 C102.1465625 437.28574219 102.074375 438.13007813 102 439 C101.9071875 439.99902344 101.814375 440.99804688 101.71875 442.02734375 C101.47254023 444.68435749 101.23352009 447.3418458 101 450 C100.01 449.67 99.02 449.34 98 449 C98 447.35 98 445.7 98 444 C97.34 443.67 96.68 443.34 96 443 C96.33 442.67 96.66 442.34 97 442 C96.51372516 440.0908427 96.02470327 438.18233505 95.52050781 436.27783203 C94.69896433 432.68261595 94.5299046 429.1131475 94.375 425.4375 C94.33705322 424.66535156 94.29910645 423.89320313 94.26000977 423.09765625 C93.92709346 415.72971267 93.90883879 408.37392896 94 401 C94 400.34 94 399.68 94 399 C94.08378906 398.41089844 94.16757812 397.82179688 94.25390625 397.21484375 C95.39842802 388.76856288 94.63785474 380.45893515 94 372 C94.33 372 94.66 372 95 372 C95 369.36 95 366.72 95 364 C94.67 364 94.34 364 94 364 C94.00523682 363.15703369 94.01047363 362.31406738 94.01586914 361.44555664 C94.03287826 358.32772064 94.04543406 355.20990823 94.05493164 352.09204102 C94.05997057 350.74079614 94.06680177 349.38955674 94.07543945 348.03833008 C94.08752419 346.09979566 94.09269828 344.161222 94.09765625 342.22265625 C94.10289307 341.05484619 94.10812988 339.88703613 94.11352539 338.68383789 C94.30661495 336.08108449 94.30661495 336.08108449 93 335 C92.84278134 333.54633496 92.74911095 332.08567357 92.68359375 330.625 C92.64169922 329.72136719 92.59980469 328.81773437 92.55664062 327.88671875 C92.51732422 326.93410156 92.47800781 325.98148437 92.4375 325 C92.39431641 324.07832031 92.35113281 323.15664063 92.30664062 322.20703125 C92.05155459 316.46557087 91.95878261 310.74688117 92 305 C91.34 304.67 90.68 304.34 90 304 C90.04125 303.278125 90.0825 302.55625 90.125 301.8125 C90.15908419 299.02634472 90.15908419 299.02634472 89.07421875 296.73046875 C87.86947726 293.66823492 87.29193057 290.73351812 86.6875 287.5 C85.41050013 281.2787186 83.49953876 275.60796996 81.0859375 269.7421875 C80.18989486 267.47951868 79.58127259 265.3503631 79 263 C78.2265625 261.5459375 78.2265625 261.5459375 77.4375 260.0625 C76.00429721 257.00915492 75.70819388 255.307136 76 252 C75.34 251.67 74.68 251.34 74 251 C74 249.68 74 248.36 74 247 C73.34 247 72.68 247 72 247 C71.731875 246.29875 71.46375 245.5975 71.1875 244.875 C70.01507084 241.91738147 70.01507084 241.91738147 68.375 238.875 C67 236 67 236 67 233 C66.01 232.67 65.02 232.34 64 232 C64 231.01 64 230.02 64 229 C63.34 228.67 62.68 228.34 62 228 C60.62464661 226.02866014 59.29788956 224.02318078 58 222 C57.2575 220.9275 56.515 219.855 55.75 218.75 C54 216 54 216 54 214 C53.01 213.67 52.02 213.34 51 213 C50.33333333 211.33333333 49.66666667 209.66666667 49 208 C48.01 207.67 47.02 207.34 46 207 C46 206.01 46 205.02 46 204 C45.14148438 203.90525391 45.14148438 203.90525391 44.265625 203.80859375 C41.05955822 202.66435957 39.81697441 200.73042808 37.75 198.0625 C37.04359375 197.16660156 36.3371875 196.27070313 35.609375 195.34765625 C34 193 34 193 34 191 C32.68 190.34 31.36 189.68 30 189 C30 188.34 30 187.68 30 187 C29.21625 186.71125 28.4325 186.4225 27.625 186.125 C24.92505935 184.96788258 23.63705954 183.69773187 21.6875 181.5625 C19.9511905 179.84064062 19.9511905 179.84064062 17.3125 178.4375 C16.549375 177.963125 15.78625 177.48875 15 177 C15 176.34 15 175.68 15 175 C14.01 174.34 13.02 173.68 12 173 C11.01 172.34 10.02 171.68 9 171 C9 170.34 9 169.68 9 169 C8.319375 168.773125 7.63875 168.54625 6.9375 168.3125 C3.85050459 166.93320418 1.46743498 165.23823747 -1.2265625 163.2265625 C-3.17700755 161.80609086 -3.17700755 161.80609086 -6.3125 160.4375 C-9.18898381 158.89891563 -9.95559887 158.02876327 -11 155 C-12.65 155 -14.3 155 -16 155 C-16.33 154.01 -16.66 153.02 -17 152 C-18.97954549 151.27484892 -20.98483814 150.61932797 -23 150 C-25.25197129 148.87798375 -27.48125894 147.70946084 -29.6875 146.5 C-30.80511719 145.8915625 -31.92273438 145.283125 -33.07421875 144.65625 C-36 143 -36 143 -39 141 C-39.99 140.67 -40.98 140.34 -42 140 C-43.78952713 139.02389429 -45.53073859 137.9816647 -47.28125 136.9375 C-49.15313514 135.85080825 -49.15313514 135.85080825 -52 135 C-57.11081725 133.14953168 -62.07517119 131.12496608 -67.01953125 128.8671875 C-69.14094854 127.9025478 -69.14094854 127.9025478 -72 127 C-74 126.33333333 -76 125.66666667 -78 125 C-78.73089844 124.76023437 -79.46179688 124.52046875 -80.21484375 124.2734375 C-83.47893882 123.19807839 -86.69716138 122.12508552 -89.875 120.8125 C-92.08785353 119.82143127 -92.08785353 119.82143127 -95 120 C-95.66 120 -96.32 120 -97 120 C-96.98839844 120.77601562 -96.97679688 121.55203125 -96.96484375 122.3515625 C-96.77934272 144.55868545 -96.77934272 144.55868545 -99 149 C-99.09932521 151.78841484 -99.13979645 154.5512491 -99.1328125 157.33984375 C-99.13424759 158.59493492 -99.13424759 158.59493492 -99.13571167 159.87538147 C-99.13639337 161.65333125 -99.13453978 163.4312835 -99.13037109 165.20922852 C-99.12508287 167.89540422 -99.13028481 170.58140806 -99.13671875 173.26757812 C-99.14014176 181.90292685 -99.00936904 190.41246201 -98 199 C-97.5 205 -97.5 205 -97.28125 207.6875 C-97.05914621 210.15485835 -97.05914621 210.15485835 -96 213 C-95.9314505 214.89470816 -95.91519628 216.7916834 -95.9375 218.6875 C-95.94652344 219.68136719 -95.95554687 220.67523438 -95.96484375 221.69921875 C-95.97644531 222.45847656 -95.98804687 223.21773437 -96 224 C-95.34 224 -94.68 224 -94 224 C-93.63794536 225.95689037 -93.28558579 227.91557668 -92.9375 229.875 C-92.74027344 230.96554688 -92.54304688 232.05609375 -92.33984375 233.1796875 C-92 236 -92 236 -93 238 C-92.34 238 -91.68 238 -91 238 C-90.67 241.96 -90.34 245.92 -90 250 C-89.34 250 -88.68 250 -88 250 C-87.87625 250.78375 -87.7525 251.5675 -87.625 252.375 C-87.20882007 255.14057822 -87.20882007 255.14057822 -85 257 C-84.62913819 258.99338221 -84.30262289 260.99512332 -84 263 C-83.08043929 266.67824284 -82.07271674 269.85456652 -80.375 273.25 C-79 276 -79 276 -79 279 C-78.34 279 -77.68 279 -77 279 C-76.71125 279.9075 -76.4225 280.815 -76.125 281.75 C-75.12804594 284.8776777 -75.12804594 284.8776777 -73.875 287.1875 C-73 289 -73 289 -73 292 C-72.34 292.33 -71.68 292.66 -71 293 C-68.9904432 295.93704456 -68 297.39222485 -68 301 C-67.01 301.33 -66.02 301.66 -65 302 C-63.77149315 304.02342305 -62.99799665 306.00601004 -62.25 308.25 C-60.70915057 311.63986874 -58.58343124 314.25386685 -56.2421875 317.1328125 C-55 319 -55 319 -55 322 C-54.38125 322.0825 -53.7625 322.165 -53.125 322.25 C-51 323 -51 323 -49.875 324.75 C-49.23955152 326.38401039 -48.63996226 328.03210819 -48.0625 329.6875 C-47.711875 330.450625 -47.36125 331.21375 -47 332 C-46.01 332.33 -45.02 332.66 -44 333 C-42.61328125 334.55859375 -42.61328125 334.55859375 -41.3125 336.4375 C-40.87550781 337.05496094 -40.43851563 337.67242187 -39.98828125 338.30859375 C-39 340 -39 340 -39 342 C-37.68 342.33 -36.36 342.66 -35 343 C-35 343.99 -35 344.98 -35 346 C-34.443125 346.2475 -33.88625 346.495 -33.3125 346.75 C-29.52717072 348.79612394 -26.53857828 350.55257086 -25 354.6875 C-24.67 355.450625 -24.34 356.21375 -24 357 C-21.45224694 357.89386164 -21.45224694 357.89386164 -19 358 C-18.67 358.99 -18.34 359.98 -18 361 C-15.59025634 363.02588561 -15.59025634 363.02588561 -12.6875 365 C-11.72199219 365.680625 -10.75648438 366.36125 -9.76171875 367.0625 C-8.06028714 368.25614933 -6.35529828 369.44476934 -4.64453125 370.625 C-3.83048828 371.305625 -3.83048828 371.305625 -3 372 C-3 372.66 -3 373.32 -3 374 C-2.26394531 374.27328125 -1.52789062 374.5465625 -0.76953125 374.828125 C5.6778771 377.55622444 16.80024278 383.60048556 20 390 C21.65697379 390.69040574 23.3255761 391.3530635 25 392 C28.65534444 394.01043944 31.76945859 396.37048955 35 399 C37.10513325 400.51793289 39.21058164 402.03456631 41.328125 403.53515625 C43 405 43 405 44 408 C44.7425 408.268125 45.485 408.53625 46.25 408.8125 C49.9234461 410.39876082 51.50270138 412.92640169 54 416 C55.0209375 416.4640625 55.0209375 416.4640625 56.0625 416.9375 C58.6217662 418.34096856 59.40100647 420.27301631 60.7265625 422.796875 C62.90426131 426.56442754 65.58805199 429.97123162 68.1953125 433.44921875 C72.73227803 439.86185617 74.99033294 447.56013718 77.78125 454.84375 C78.54474488 456.82100596 79.33275133 458.78916024 80.15625 460.7421875 C81.11144614 463.29822161 81 465.29482312 81 468 C81.66 468.99 82.32 469.98 83 471 C83 472.32 83 473.64 83 475 C83.185625 476.19625 83.37125 477.3925 83.5625 478.625 C84 482 84 482 83 484 C83.66 484 84.32 484 85 484 C85.34729793 490.33264529 85.67811063 496.66601406 86 503 C86.08000244 504.55485107 86.08000244 504.55485107 86.16162109 506.14111328 C86.3219114 509.30215363 86.47442796 512.46348327 86.625 515.625 C86.7031897 517.14492554 86.7031897 517.14492554 86.78295898 518.69555664 C86.84785522 520.10309204 86.84785522 520.10309204 86.9140625 521.5390625 C86.9752124 522.79517334 86.9752124 522.79517334 87.03759766 524.07666016 C87 526 87 526 86 527 C86.23976789 529.04238646 86.4819642 531.0845052 86.73339844 533.12548828 C87.26723833 538.88137738 87.14285393 544.66175471 87.125 550.4375 C87.12886719 551.71560547 87.13273437 552.99371094 87.13671875 554.31054688 C87.13478516 556.13489258 87.13478516 556.13489258 87.1328125 557.99609375 C87.13168457 559.10138428 87.13055664 560.2066748 87.12939453 561.34545898 C87 564 87 564 86 566 C86.165 566.9075 86.33 567.815 86.5 568.75 C87.02560304 572.16641973 86.5870948 574.62420488 86 578 C86.38932856 580.14255793 86.38932856 580.14255793 87 582 C87 585.11227195 86.54372951 587.94152152 86 591 C74.80863621 591.02359072 63.6172787 591.04114519 52.42589474 591.05181217 C47.22443171 591.05694212 42.02298617 591.06384958 36.8215332 591.07543945 C9.8633942 591.13394571 -17.05495548 590.86784017 -44 590 C-44 589.34 -44 588.68 -44 588 C-45.134375 588.165 -46.26875 588.33 -47.4375 588.5 C-51.93858534 589.06263567 -56.46900826 589.33709785 -61 589 C-61.33 588.67 -61.66 588.34 -62 588 C-64.24933827 587.9170326 -66.49963226 587.85994751 -68.75 587.8125 C-75.90019409 587.51992802 -82.45178268 586.05632927 -89.3125 584.0625 C-90.22547852 583.79735596 -91.13845703 583.53221191 -92.07910156 583.2590332 C-95.82239101 582.12541762 -98.71727093 581.18848605 -102 579 C-102.7940625 578.85433594 -103.588125 578.70867188 -104.40625 578.55859375 C-107.37109675 577.92008007 -109.0504215 576.82636902 -111.5 575.0625 C-114.58826955 572.84960263 -117.45789707 571.3627896 -121 570 C-126.12394909 566.79753182 -130.7324774 563.2675226 -135 559 C-135.99 558.34 -136.98 557.68 -138 557 C-138 556.34 -138 555.68 -138 555 C-138.99 554.67 -139.98 554.34 -141 554 C-142.37482707 552.36739286 -143.70647667 550.69774938 -145 549 C-145.97850195 547.97895449 -146.97980427 546.9793879 -148 546 C-153.08178374 541.05194741 -157.42576419 536.6930131 -160 530 C-160.66 529.195625 -161.32 528.39125 -162 527.5625 C-164.1854217 524.76242845 -164.92844902 522.35752639 -166 519 C-166.98731742 517.65724831 -167.98594743 516.32267727 -169 515 C-169.5625 513.0625 -169.5625 513.0625 -170 511 C-170.33 510.175 -170.66 509.35 -171 508.5 C-171.87484505 506.31288738 -172.43479265 504.27757628 -173 502 C-173.47587552 500.49895264 -173.95531158 498.99903136 -174.4375 497.5 C-177.27041633 488.04305872 -178.34916594 478.85423883 -178 469 C-178.33 469 -178.66 469 -179 469 C-179.04582177 425.70357516 -179.0810417 382.40715313 -179.10213066 339.11070883 C-179.10463194 333.99405324 -179.1072206 328.8773977 -179.10986328 323.76074219 C-179.1103879 322.7421489 -179.11091252 321.72355562 -179.11145304 320.67409587 C-179.1201452 304.20172154 -179.13590861 287.72936123 -179.15430559 271.2569952 C-179.17303776 254.3428932 -179.18412373 237.42879853 -179.18817699 220.51468658 C-179.19091517 210.08578134 -179.19954977 199.65691573 -179.21583293 189.22802269 C-179.22644078 182.06732858 -179.22959205 174.90665483 -179.22700275 167.74595344 C-179.22572736 163.6205013 -179.22762138 159.49511822 -179.23841095 155.3696785 C-179.24824503 151.58160599 -179.24857013 147.79364806 -179.24179779 144.00556993 C-179.24057138 142.00920828 -179.24910564 140.01284768 -179.25816262 138.0165062 C-179.22839892 128.87401025 -178.30208786 120.03142486 -177 111 C-176.34 111 -175.68 111 -175 111 C-175.495 108.03 -175.495 108.03 -176 105 C-175.34 105 -174.68 105 -174 105 C-174.309375 103.6696875 -174.309375 103.6696875 -174.625 102.3125 C-175.04579905 98.59544174 -174.48432831 97.35926934 -173 94 C-172.66566021 92.52561634 -172.35517486 91.04571667 -172.0625 89.5625 C-171.2419413 85.66000036 -169.88337206 82.53132261 -168 79 C-167.67 78.01 -167.34 77.02 -167 76 C-165.14712876 70.44138629 -162.28672004 65.82052272 -159 61 C-158.67 60.34 -158.34 59.68 -158 59 C-156.47730888 56.35184154 -155.16641531 54.16641531 -153 52 C-152.566875 51.4225 -152.13375 50.845 -151.6875 50.25 C-146.66567455 43.55423273 -141.07966558 37.85915785 -134.6875 32.47265625 C-133.22700763 31.1981062 -131.85365279 29.82499411 -130.5 28.4375 C-125.82235777 23.87679883 -120.8227945 20.91139725 -115 18 C-114.195625 17.319375 -113.39125 16.63875 -112.5625 15.9375 C-109.49600894 13.61893359 -106.68455165 13.00487772 -103 12 C-101.64377755 11.03126968 -100.30582947 10.03565785 -99 9 C-97.0625 8.4375 -97.0625 8.4375 -95 8 C-94.278125 7.67 -93.55625 7.34 -92.8125 7 C-89.54001294 5.83644905 -86.53521355 5.57919546 -83.0859375 5.34375 C-80.70024095 5.09773501 -80.70024095 5.09773501 -78 3 C-72.33695421 1.84427637 -66.74982495 1.89587842 -61 2 C-61 1.67 -61 1.34 -61 1 C-40.87 1 -20.74 1 0 1 C0 0.67 0 0.34 0 0 Z M-177 116 C-176 118 -176 118 -176 118 Z M-178 127 C-177 131 -177 131 -177 131 Z M428 203 C429 205 429 205 429 205 Z M428 216 C429 219 429 219 429 219 Z M426 471 C427 473 427 473 427 473 Z M119 557 C120 559 120 559 120 559 Z M119 561 C119 562.65 119 564.3 119 566 C119.33 566 119.66 566 120 566 C120 564.35 120 562.7 120 561 C119.67 561 119.34 561 119 561 Z M293 588 C293 588.33 293 588.66 293 589 C294.65 589 296.3 589 298 589 C298 588.67 298 588.34 298 588 C296.35 588 294.7 588 293 588 Z " fill="#295F34" transform="translate(181,2)"/>
<path d="M0 0 C0.495 1.485 0.495 1.485 1 3 C-0.30859375 5.109375 -0.30859375 5.109375 -2.4375 7.75 C-7.10101333 13.70101548 -11.44615358 19.84737059 -15.75 26.0625 C-16.43618408 27.05233887 -17.12236816 28.04217773 -17.8293457 29.06201172 C-23.28797933 36.94919074 -28.7233553 44.8524466 -34.1328125 52.7734375 C-34.60106445 53.45760742 -35.06931641 54.14177734 -35.55175781 54.84667969 C-36.59506866 56.39792744 -37.61807881 57.96289783 -38.62792969 59.53613281 C-39.16063477 60.36209961 -39.69333984 61.18806641 -40.2421875 62.0390625 C-40.72284668 62.79654785 -41.20350586 63.5540332 -41.69873047 64.33447266 C-42.12814941 64.88409668 -42.55756836 65.4337207 -43 66 C-43.66 66 -44.32 66 -45 66 C-45.0928125 66.71285156 -45.185625 67.42570312 -45.28125 68.16015625 C-46.13051843 71.51568968 -47.51852453 73.60288925 -49.5 76.4375 C-50.58087891 78.01144531 -50.58087891 78.01144531 -51.68359375 79.6171875 C-52.06370605 80.16858398 -52.44381836 80.71998047 -52.83544922 81.28808594 C-54.80052256 84.17678495 -56.68076001 87.11909992 -58.5625 90.0625 C-58.93777832 90.64821777 -59.31305664 91.23393555 -59.69970703 91.83740234 C-60.80101003 93.55750087 -61.90064261 95.27865752 -63 97 C-63.66644531 98.0415625 -64.33289063 99.083125 -65.01953125 100.15625 C-68.98584285 106.36874648 -72.81771082 112.58197709 -76.29296875 119.0859375 C-76.60047058 119.6606076 -76.90797241 120.23527771 -77.22479248 120.82736206 C-78.21356793 122.67593277 -79.20056267 124.52544739 -80.1875 126.375 C-80.86455945 127.64165783 -81.54172441 128.90825928 -82.21899414 130.17480469 C-84.14760478 133.7823456 -86.07398635 137.39107193 -88 141 C-88.73379883 142.37430176 -88.73379883 142.37430176 -89.48242188 143.77636719 C-91.65727877 147.84967222 -93.83027132 151.92396018 -96 156 C-96.66 156 -97.32 156 -98 156 C-98.12375 156.9075 -98.2475 157.815 -98.375 158.75 C-98.92109677 161.58970323 -99.57263803 163.52590591 -101 166 C-101.33 166 -101.66 166 -102 166 C-101.4820499 158.87271477 -99.85094485 152.7716267 -97.4375 146.0625 C-97.08107422 145.05759521 -96.72464844 144.05269043 -96.35742188 143.01733398 C-93.02830536 133.79132238 -89.21868229 124.85067437 -85 116 C-84.68595215 115.33484375 -84.3719043 114.6696875 -84.04833984 113.984375 C-72.6589523 90.01416735 -58.17964008 67.98001441 -42 47 C-41.52675293 46.38108887 -41.05350586 45.76217773 -40.56591797 45.12451172 C-35.07046147 37.94340224 -29.40709808 31.06209465 -23.25 24.43359375 C-21.36053949 22.38995851 -19.54658082 20.31195682 -17.75 18.1875 C-12.20742377 11.78602576 -6.02100859 5.94585037 0 0 Z " fill="#366A42" transform="translate(427,199)"/>
<path d="M0 0 C3.59309034 1.19769678 4.42093253 2.4676789 6.6875 5.4375 C7.31011719 6.24058594 7.93273437 7.04367187 8.57421875 7.87109375 C10 10 10 10 10 12 C10.60505371 12.26087402 11.21010742 12.52174805 11.83349609 12.79052734 C14.17388369 14.09707232 15.1450378 15.17224499 16.6640625 17.3515625 C17.14101562 18.02912598 17.61796875 18.70668945 18.109375 19.40478516 C18.60953125 20.13745605 19.1096875 20.87012695 19.625 21.625 C20.41777344 22.77234619 20.41777344 22.77234619 21.2265625 23.94287109 C22.83294498 26.28535131 24.4205132 28.63931571 26 31 C26.66273926 31.98806641 26.66273926 31.98806641 27.33886719 32.99609375 C32.87760746 41.34107127 37.7190181 50.01018079 42.375 58.875 C42.87515625 59.82584473 43.3753125 60.77668945 43.890625 61.75634766 C52.33301877 78.10207695 52.33301877 78.10207695 51.59912109 82.28466797 C51.30255615 83.13375732 51.30255615 83.13375732 51 84 C50.24814599 82.81367298 49.49864208 81.62585655 48.75 80.4375 C48.12351562 79.44556641 48.12351562 79.44556641 47.484375 78.43359375 C46.3834607 76.62867372 45.32311477 74.79887563 44.28515625 72.95703125 C41.25192814 67.62063771 37.94940471 62.44835756 34.6875 57.25 C34.04876953 56.2290625 33.41003906 55.208125 32.75195312 54.15625 C25.48561809 42.50762438 25.48561809 42.50762438 18 31 C18 30.01 18 29.02 18 28 C17.01 27.67 16.02 27.34 15 27 C13.55786133 25.09814453 13.55786133 25.09814453 12.08203125 22.6328125 C11.55029297 21.74722656 11.01855469 20.86164063 10.47070312 19.94921875 C9.92349609 19.01722656 9.37628906 18.08523438 8.8125 17.125 C8.25369141 16.20074219 7.69488281 15.27648437 7.11914062 14.32421875 C3 7.39360119 3 7.39360119 3 4 C2.01 3.67 1.02 3.34 0 3 C0 2.01 0 1.02 0 0 Z " fill="#3F704B" transform="translate(187,269)"/>
<path d="M0 0 C0.66 0 1.32 0 2 0 C5.34821429 6.96428571 5.34821429 6.96428571 4 11 C3.13341385 9.73760288 2.28207941 8.46472499 1.4375 7.1875 C0.72400391 6.12595703 0.72400391 6.12595703 -0.00390625 5.04296875 C-1 3 -1 3 0 0 Z " fill="#598464" transform="translate(234,342)"/>
<path d="M0 0 C3.72940389 1.24313463 4.84656811 2.76985216 7 6 C6.67 6.99 6.34 7.98 6 9 C5.34 9 4.68 9 4 9 C3.67 7.35 3.34 5.7 3 4 C2.01 3.67 1.02 3.34 0 3 C0 2.01 0 1.02 0 0 Z " fill="#497754" transform="translate(187,269)"/>
</svg>
