<?xml version="1.0" encoding="UTF-8"?>
<svg version="1.1" xmlns="http://www.w3.org/2000/svg" width="582" height="567">
<path d="M0 0 C0.75968861 -0.00579339 1.51937723 -0.01158677 2.30208671 -0.01755571 C4.86144961 -0.03567085 7.42079037 -0.04650317 9.98019409 -0.05725098 C11.80985212 -0.06842265 13.6395081 -0.07993586 15.46916199 -0.09176636 C21.49087666 -0.12837121 27.51261249 -0.15355091 33.53439331 -0.1763916 C34.55850233 -0.18033747 35.58261134 -0.18428333 36.63775396 -0.18834877 C46.29487267 -0.22477223 55.95199862 -0.25622053 65.60916328 -0.27745819 C77.96545312 -0.30503172 90.3211688 -0.35578858 102.67721951 -0.43793249 C111.36265762 -0.49371972 120.04793994 -0.52269375 128.73355091 -0.5319314 C133.92190116 -0.53819012 139.10957866 -0.55632263 144.29773331 -0.60331726 C149.18169355 -0.64700718 154.06461374 -0.65746492 158.94873619 -0.64268875 C160.73858572 -0.64301724 162.52848012 -0.65528127 164.31815147 -0.68053818 C179.51848789 -0.88368143 179.51848789 -0.88368143 184.77923584 3.59301758 C188.62639522 7.78607472 188.86703356 10.91131106 188.88143921 16.45327759 C188.88723259 17.2129662 188.89302598 17.97265482 188.89899492 18.7553643 C188.91711006 21.3147272 188.92794238 23.87406796 188.93869019 26.43347168 C188.94986186 28.26312971 188.96137507 30.09278568 188.97320557 31.92243958 C189.00981042 37.94415425 189.03499012 43.96589008 189.05783081 49.9876709 C189.06177668 51.01177991 189.06572254 52.03588893 189.06978798 53.09103155 C189.10621144 62.74815026 189.13765974 72.4052762 189.1588974 82.06244087 C189.18647093 94.41873071 189.23722779 106.77444638 189.3193717 119.1304971 C189.37515893 127.81593521 189.40413296 136.50121753 189.41337061 145.18682849 C189.41962933 150.37517875 189.43776184 155.56285625 189.48475647 160.75101089 C189.52844639 165.63497114 189.53890413 170.51789133 189.52412796 175.40201378 C189.52445645 177.19186331 189.53672048 178.98175771 189.56197739 180.77142906 C189.76512064 195.97176548 189.76512064 195.97176548 185.28842163 201.23251343 C180.65606833 205.48273012 176.86388928 205.30576369 170.7663269 205.28088379 C169.37600502 205.28110283 169.37600502 205.28110283 167.95759583 205.28132629 C164.88421311 205.28062786 161.81089048 205.27283867 158.73751831 205.26501465 C156.61045362 205.26315022 154.48338851 205.26172644 152.35632324 205.26072693 C146.75032369 205.25690368 141.14434994 205.24707502 135.5383606 205.23602295 C129.82089588 205.2258047 124.10342702 205.22122842 118.38595581 205.21618652 C107.16198613 205.2054526 95.93803561 205.18837847 84.71408081 205.1673584 C84.711007 202.77494204 84.70876738 200.38252969 84.70700073 197.9901123 C84.70605156 197.31795181 84.70510239 196.64579132 84.70412445 195.95326233 C84.68485355 161.10748519 84.68485355 161.10748519 94.83102417 150.48303223 C100.45671086 145.06286654 107.08073099 141.2033089 113.79660034 137.2947998 C135.40891085 124.58717949 149.28439367 107.94160982 155.98751831 83.5189209 C157.77844293 75.25755896 157.87019315 67.18001606 157.8444519 58.75866699 C157.83909316 56.6721673 157.84442185 54.5858828 157.85079956 52.49938965 C157.85371684 45.98101264 157.76044052 39.61160552 156.71408081 33.1673584 C148.05672524 36.13859079 139.74793615 39.43763049 131.65158081 43.7298584 C130.96265747 44.09329346 130.27373413 44.45672852 129.56393433 44.83117676 C126.1547569 46.68007475 122.97164811 48.64970446 119.84298706 50.94470215 C116.71408081 53.1673584 116.71408081 53.1673584 114.71408081 53.1673584 C114.34283081 54.1264209 114.34283081 54.1264209 113.96408081 55.1048584 C112.38420142 57.7116594 111.5462777 57.45930918 108.71408081 58.1673584 C108.42790894 58.73970215 108.14173706 59.3120459 107.84689331 59.9017334 C106.46363453 62.66825097 104.6470184 64.60845282 102.58908081 66.9173584 C85.66172007 87.38828902 83.53186702 112.84885398 83.18234253 138.35876465 C82.94332813 154.27510377 82.94332813 154.27510377 80.71408081 162.1673584 C79.72408081 161.8373584 78.73408081 161.5073584 77.71408081 161.1673584 C77.66396851 159.99866211 77.6138562 158.82996582 77.56222534 157.62585449 C77.37159733 153.22334772 77.17179867 148.82129393 76.9694519 144.41931152 C76.88367862 142.52651687 76.80027937 140.63361289 76.7194519 138.74060059 C75.72362876 115.50472722 73.79661809 92.17894814 55.71408081 75.1673584 C52.50067584 72.63575413 49.15609317 70.37534559 45.71408081 68.1673584 C44.89552612 67.64013184 44.07697144 67.11290527 43.23361206 66.56970215 C35.13118387 61.5330576 26.46090569 57.90983464 17.71408081 54.1673584 C16.58621857 78.0827628 16.58621857 78.0827628 21.71408081 101.1673584 C21.97189331 101.82155762 22.22970581 102.47575684 22.49533081 103.14978027 C28.97550774 119.00521318 39.77954432 129.50337999 53.71408081 139.1673584 C65.36590456 147.28555717 72.59140776 153.70468914 75.71408081 168.1673584 C76.45579941 174.60050095 76.19304657 181.08223076 76.02658081 187.5423584 C76.00142965 189.26107542 75.97862868 190.9798285 75.95822144 192.6986084 C75.90384985 196.8557706 75.81797001 201.01115107 75.71408081 205.1673584 C65.03062041 205.32983989 54.34745586 205.45407485 43.66300964 205.5300436 C38.70123527 205.5665129 33.74030869 205.61594678 28.77902222 205.69543457 C23.98733236 205.77172115 19.19645577 205.81339607 14.40420532 205.8314991 C12.57973432 205.8443928 10.75530582 205.86957239 8.93118286 205.9074688 C-7.15675022 206.22828151 -7.15675022 206.22828151 -12.40701294 201.74963379 C-16.19723144 197.55130974 -16.43895832 194.39017537 -16.45327759 188.88143921 C-16.45907097 188.12175059 -16.46486436 187.36206198 -16.4708333 186.5793525 C-16.48894844 184.01998959 -16.49978076 181.46064884 -16.51052856 178.90124512 C-16.52170024 177.07158709 -16.53321344 175.24193111 -16.54504395 173.41227722 C-16.5816488 167.39056255 -16.6068285 161.36882672 -16.62966919 155.3470459 C-16.63361506 154.32293688 -16.63756092 153.29882787 -16.64162636 152.24368525 C-16.67804982 142.58656654 -16.70949812 132.92944059 -16.73073578 123.27227592 C-16.75830931 110.91598609 -16.80906617 98.56027041 -16.89121008 86.2042197 C-16.94699731 77.51878159 -16.97597134 68.83349927 -16.98520899 60.1478883 C-16.99146771 54.95953805 -17.00960022 49.77186054 -17.05659485 44.5837059 C-17.10028477 39.69974566 -17.11074251 34.81682547 -17.09596634 29.93270302 C-17.09629483 28.14285349 -17.10855886 26.35295908 -17.13381577 24.56328773 C-17.33695902 9.36295132 -17.33695902 9.36295132 -12.86026001 4.10220337 C-8.66720287 0.25504399 -5.54196653 0.01440565 0 0 Z " fill="#FEFEFE" transform="translate(152.28591918945313,226.8326416015625)"/>
<path d="M0 0 C0.7872345 -0.01139008 1.57446899 -0.02278015 2.38555908 -0.03451538 C10.62926593 -0.14524381 18.87387014 -0.19261401 27.11816406 -0.23535156 C31.02746599 -0.25760781 34.93581042 -0.29934593 38.84472656 -0.35839844 C43.56744553 -0.4296044 48.28926493 -0.46620116 53.01249313 -0.47846985 C54.80903439 -0.48885224 56.60554945 -0.51123343 58.40178299 -0.54606628 C74.22237375 -0.83693156 74.22237375 -0.83693156 79.47558594 3.64453125 C83.28407268 7.84138588 83.5255697 10.99101357 83.53991699 16.51052856 C83.54571038 17.27021718 83.55150376 18.02990579 83.55747271 18.81261528 C83.57558784 21.37197818 83.58642016 23.93131894 83.59716797 26.49072266 C83.60833964 28.32038069 83.61985285 30.15003666 83.63168335 31.97969055 C83.66828821 38.00140523 83.6934679 44.02314106 83.71630859 50.04492188 C83.72025446 51.06903089 83.72420033 52.09313991 83.72826576 53.14828253 C83.76468922 62.80540123 83.79613752 72.46252718 83.81737518 82.11969185 C83.84494872 94.47598169 83.89570557 106.83169736 83.97784948 119.18774807 C84.03363671 127.87318618 84.06261075 136.55846851 84.07184839 145.24407947 C84.07810712 150.43242972 84.09623962 155.62010723 84.14323425 160.80826187 C84.18692417 165.69222211 84.19738191 170.5751423 84.18260574 175.45926476 C84.18293423 177.24911429 84.19519826 179.03900869 84.22045517 180.82868004 C84.42359842 196.02901645 84.42359842 196.02901645 79.94689941 201.2897644 C75.67404321 205.21013999 72.39082354 205.39327545 66.74511719 205.44921875 C65.95788269 205.46060883 65.17064819 205.4719989 64.35955811 205.48373413 C56.11585126 205.59446256 47.87124705 205.64183276 39.62695312 205.68457031 C35.71765119 205.70682656 31.80930676 205.74856468 27.90039062 205.80761719 C23.17767166 205.87882315 18.45585225 205.91541991 13.73262405 205.9276886 C11.9360828 205.93807099 10.13956774 205.96045218 8.3433342 205.99528503 C-7.47725656 206.28615031 -7.47725656 206.28615031 -12.73046875 201.8046875 C-16.53895549 197.60783287 -16.78045251 194.45820518 -16.7947998 188.93869019 C-16.80059319 188.17900157 -16.80638658 187.41931296 -16.81235552 186.63660347 C-16.83047065 184.07724057 -16.84130298 181.51789981 -16.85205078 178.95849609 C-16.86322245 177.12883806 -16.87473566 175.29918209 -16.88656616 173.4695282 C-16.92317102 167.44781352 -16.94835071 161.42607769 -16.97119141 155.40429688 C-16.97513727 154.38018786 -16.97908314 153.35607884 -16.98314857 152.30093622 C-17.01957204 142.64381752 -17.05102034 132.98669157 -17.072258 123.3295269 C-17.09983153 110.97323706 -17.15058838 98.61752139 -17.2327323 86.26147068 C-17.28851953 77.57603257 -17.31749356 68.89075024 -17.3267312 60.20513928 C-17.33298993 55.01678903 -17.35112243 49.82911152 -17.39811707 44.64095688 C-17.44180698 39.75699664 -17.45226472 34.87407645 -17.43748856 29.98995399 C-17.43781705 28.20010446 -17.45008108 26.41021006 -17.47533798 24.62053871 C-17.67848124 9.4202023 -17.67848124 9.4202023 -13.20178223 4.15945435 C-8.92892602 0.23907876 -5.64570635 0.0559433 0 0 Z " fill="#FEFEFE" transform="translate(362.62744140625,121.775390625)"/>
<path d="M0 0 C0.75968861 -0.00579339 1.51937723 -0.01158677 2.30208671 -0.01755571 C4.86144961 -0.03567085 7.42079037 -0.04650317 9.98019409 -0.05725098 C11.80985212 -0.06842265 13.6395081 -0.07993586 15.46916199 -0.09176636 C21.49087666 -0.12837121 27.51261249 -0.15355091 33.53439331 -0.1763916 C34.55850233 -0.18033747 35.58261134 -0.18428333 36.63775396 -0.18834877 C46.29487267 -0.22477223 55.95199862 -0.25622053 65.60916328 -0.27745819 C77.96545312 -0.30503172 90.3211688 -0.35578858 102.67721951 -0.43793249 C111.36265762 -0.49371972 120.04793994 -0.52269375 128.73355091 -0.5319314 C133.92190116 -0.53819012 139.10957866 -0.55632263 144.29773331 -0.60331726 C149.18169355 -0.64700718 154.06461374 -0.65746492 158.94873619 -0.64268875 C160.73858572 -0.64301724 162.52848012 -0.65528127 164.31815147 -0.68053818 C179.51848789 -0.88368143 179.51848789 -0.88368143 184.77923584 3.59301758 C188.69961142 7.86587378 188.88274689 11.14909345 188.93869019 16.7947998 C188.95008026 17.5820343 188.96147034 18.3692688 188.97320557 19.18035889 C189.083934 27.42406573 189.1313042 35.66866994 189.17404175 43.91296387 C189.196298 47.8222658 189.23803612 51.73061023 189.29708862 55.63952637 C189.36829459 60.36224533 189.40489135 65.08406474 189.41716003 69.80729294 C189.42754243 71.60383419 189.44992361 73.40034925 189.48475647 75.19658279 C189.77562174 91.01717355 189.77562174 91.01717355 185.29415894 96.27038574 C181.09730431 100.07887248 177.94767662 100.32036951 172.42816162 100.3347168 C171.66847301 100.34051018 170.90878439 100.34630357 170.12607491 100.35227251 C167.56671201 100.37038765 165.00737125 100.38121997 162.44796753 100.39196777 C160.6183095 100.40313945 158.78865352 100.41465265 156.95899963 100.42648315 C150.93728496 100.46308801 144.91554913 100.48826771 138.89376831 100.5111084 C137.8696593 100.51505426 136.84555028 100.51900013 135.79040766 100.52306557 C126.13328895 100.55948903 116.476163 100.59093733 106.81899834 100.61217499 C94.4627085 100.63974852 82.10699282 100.69050538 69.75094211 100.77264929 C61.065504 100.82843652 52.38022168 100.85741055 43.69461071 100.8666482 C38.50626046 100.87290692 33.31858296 100.89103943 28.13042831 100.93803406 C23.24646807 100.98172398 18.36354788 100.99218171 13.47942543 100.97740555 C11.6895759 100.97773404 9.8996815 100.98999807 8.11001015 101.01525497 C-7.09032627 101.21839823 -7.09032627 101.21839823 -12.35107422 96.74169922 C-16.2714498 92.46884301 -16.45458527 89.18562335 -16.51052856 83.53991699 C-16.52191864 82.7526825 -16.53330872 81.965448 -16.54504395 81.15435791 C-16.65577238 72.91065106 -16.70314258 64.66604686 -16.74588013 56.42175293 C-16.76813638 52.512451 -16.80987449 48.60410657 -16.868927 44.69519043 C-16.94013296 39.97247146 -16.97672973 35.25065206 -16.98899841 30.52742386 C-16.99938081 28.73088261 -17.02176199 26.93436755 -17.05659485 25.138134 C-17.34746012 9.31754324 -17.34746012 9.31754324 -12.86599731 4.06433105 C-8.66914268 0.25584432 -5.519515 0.01434729 0 0 Z " fill="#FEFEFE" transform="translate(152.28591918945313,121.8326416015625)"/>
<path d="M0 0 C0.7872345 -0.01139008 1.57446899 -0.02278015 2.38555908 -0.03451538 C10.62926593 -0.14524381 18.87387014 -0.19261401 27.11816406 -0.23535156 C31.02746599 -0.25760781 34.93581042 -0.29934593 38.84472656 -0.35839844 C43.56744553 -0.4296044 48.28926493 -0.46620116 53.01249313 -0.47846985 C54.80903439 -0.48885224 56.60554945 -0.51123343 58.40178299 -0.54606628 C74.22237375 -0.83693156 74.22237375 -0.83693156 79.47558594 3.64453125 C83.35670065 7.92142005 83.54144908 11.22899123 83.59716797 16.85205078 C83.61425308 18.03290253 83.61425308 18.03290253 83.63168335 19.23760986 C83.74241178 27.48131671 83.78978198 35.72592092 83.83251953 43.97021484 C83.85477578 47.87951678 83.8965139 51.78786121 83.95556641 55.69677734 C84.02677237 60.41949631 84.06336913 65.14131572 84.07563782 69.86454391 C84.08602021 71.66108517 84.1084014 73.45760023 84.14323425 75.25383377 C84.43409953 91.07442453 84.43409953 91.07442453 79.95263672 96.32763672 C75.67574792 100.20875143 72.36817674 100.39349986 66.74511719 100.44921875 C65.95788269 100.46060883 65.17064819 100.4719989 64.35955811 100.48373413 C56.11585126 100.59446256 47.87124705 100.64183276 39.62695312 100.68457031 C35.71765119 100.70682656 31.80930676 100.74856468 27.90039062 100.80761719 C23.17767166 100.87882315 18.45585225 100.91541991 13.73262405 100.9276886 C11.9360828 100.93807099 10.13956774 100.96045218 8.3433342 100.99528503 C-7.47725656 101.28615031 -7.47725656 101.28615031 -12.73046875 96.8046875 C-16.61158347 92.5277987 -16.79633189 89.22022752 -16.85205078 83.59716797 C-16.86344086 82.80993347 -16.87483093 82.02269897 -16.88656616 81.21160889 C-16.9972946 72.96790204 -17.04466479 64.72329783 -17.08740234 56.47900391 C-17.10965859 52.56970197 -17.15139671 48.66135754 -17.21044922 44.75244141 C-17.28165518 40.02972244 -17.31825194 35.30790303 -17.33052063 30.58467484 C-17.34090303 28.78813358 -17.36328421 26.99161852 -17.39811707 25.19538498 C-17.68898234 9.37479422 -17.68898234 9.37479422 -13.20751953 4.12158203 C-8.93063074 0.24046732 -5.62305955 0.05571889 0 0 Z " fill="#FEFEFE" transform="translate(362.62744140625,331.775390625)"/>
<path d="M0 0 C0.495 1.485 0.495 1.485 1 3 C-0.25537882 4.72614587 -1.61667196 6.37458956 -3 8 C-15.96876298 25.8156744 -26.95984425 44.4222516 -37 64 C-37.33 64 -37.66 64 -38 64 C-38.35314675 57.71398779 -37.40236589 53.35430729 -34.875 47.625 C-34.55442627 46.87895508 -34.23385254 46.13291016 -33.90356445 45.36425781 C-26.44948629 28.36962433 -14.25814902 13.84383187 -1 1 C-0.67 0.67 -0.34 0.34 0 0 Z " fill="#FFFFFF" transform="translate(283,300)"/>
<path d="M0 0 C1.9375 0.8125 1.9375 0.8125 4 2 C4.33 2.99 4.66 3.98 5 5 C5.57878906 5.24878906 6.15757812 5.49757813 6.75390625 5.75390625 C10.16569038 7.64670475 11.86899076 10.73552328 13.9375 13.9375 C14.37626465 14.6075708 14.8150293 15.2776416 15.26708984 15.96801758 C24 29.56677686 24 29.56677686 24 37 C23.34 37 22.68 37 22 37 C20.67480469 35.12329102 20.67480469 35.12329102 19.171875 32.50390625 C18.61886719 31.55193359 18.06585938 30.59996094 17.49609375 29.61914062 C16.63177734 28.10610352 16.63177734 28.10610352 15.75 26.5625 C12.09394534 20.2127315 8.41154316 13.95020973 4.25830078 7.91015625 C2.58362414 5.36792303 1.27451363 2.76144619 0 0 Z " fill="#FFFFFF" transform="translate(197,323)"/>
</svg>
